<svg width="91" height="18" viewBox="0 0 91 18" fill="none" xmlns="http://www.w3.org/2000/svg">
<path d="M7.1168 0C8.01826 0 8.82484 0.188284 9.53652 0.517789C10.2956 0.847294 10.9124 1.31802 11.4818 1.88288C12.0037 2.44775 12.4307 3.15383 12.7628 3.95405C13.0475 4.75428 13.2372 5.55451 13.2372 6.44888C13.2372 7.34325 13.0949 8.19055 12.7628 8.9437C12.4781 9.74393 12.0511 10.4029 11.4818 11.0149C10.9599 11.5797 10.2956 12.0505 9.53652 12.38C8.77739 12.7095 7.97082 12.8978 7.1168 12.8978C6.40512 12.8978 5.69344 12.7565 5.02921 12.5212C4.36497 12.2858 3.79563 11.9563 3.41607 11.5327V17.5108H0V0.376578H2.94162L3.41607 1.22387C3.89052 0.800222 4.45987 0.47072 5.02921 0.329503C5.646 0.0941428 6.35768 0 7.1168 0ZM6.6898 9.88514C7.11681 9.88514 7.54382 9.791 7.92338 9.60271C8.30294 9.41442 8.63505 9.17906 8.96717 8.89663C9.25184 8.61419 9.48907 8.23761 9.67885 7.81397C9.86863 7.39032 9.96352 6.96667 9.96352 6.49595C9.96352 6.02523 9.86863 5.60158 9.67885 5.17793C9.48907 4.75428 9.25184 4.3777 8.96717 4.09527C8.6825 3.81284 8.35039 3.53041 7.92338 3.38919C7.54382 3.2009 7.11681 3.10675 6.6898 3.10675C6.26279 3.10675 5.83578 3.15383 5.45621 3.29505C5.07665 3.43626 4.74453 3.62455 4.45986 3.90699C4.17519 4.18942 3.93796 4.51892 3.79563 4.98964C3.65329 5.41329 3.5584 5.93108 3.5584 6.54302C3.5584 7.10789 3.65329 7.62568 3.79563 8.04933C3.93796 8.47297 4.17519 8.80248 4.45986 9.13199C4.74453 9.41442 5.07665 9.64978 5.45621 9.791C5.78833 9.791 6.21534 9.88514 6.6898 9.88514Z" fill="white"/>
<path d="M18.0767 2.07114C18.2191 1.78872 18.4563 1.55336 18.6461 1.318C18.8833 1.08265 19.1205 0.847285 19.4052 0.658998C19.6899 0.470712 20.022 0.329498 20.449 0.188283C20.8286 0.0941402 21.2556 0 21.73 0C22.2994 0 22.9636 0.0941387 23.6753 0.282425L23.3431 3.29501C23.1534 3.24794 22.9636 3.20086 22.7738 3.15379C22.6315 3.10672 22.4417 3.10672 22.2994 3.05965C22.1096 3.01258 21.9672 3.01257 21.8249 3.01257C21.303 3.01257 20.7811 3.10672 20.3541 3.24793C19.8796 3.38915 19.5001 3.62451 19.168 3.85986C18.8358 4.14229 18.5512 4.42472 18.3614 4.80129C18.1716 5.17787 18.0767 5.55444 18.0767 5.97808V12.474H14.6606V0.235358H17.792L18.0767 2.07114Z" fill="white"/>
<path d="M28.6572 12.6153H25.2412V0.37587H28.6572V12.6153Z" fill="white"/>
<path d="M35.6787 9.55705H41.3721V12.617H31.1714V9.74535L36.248 3.39011H31.6458V0.330185H41.2298V2.58983L35.6787 9.55705Z" fill="white"/>
<path d="M49.7229 0C50.6718 0 51.4784 0.188282 52.2375 0.564849C52.9966 0.941415 53.6609 1.41213 54.1828 2.02405C54.7521 2.63597 55.1317 3.29496 55.4638 4.09516C55.7485 4.89537 55.8908 5.69557 55.8908 6.49578C55.8908 6.96649 55.8434 7.53133 55.701 8.09618H46.8762C47.2083 8.66103 47.6828 9.13174 48.2996 9.50831C48.9163 9.88488 49.5806 10.0732 50.2923 10.0732C51.0039 10.0732 51.6207 10.0261 52.1901 9.88488C52.712 9.79074 53.2339 9.60245 53.7083 9.46124L54.847 11.5794C54.2302 12.0031 53.5185 12.3326 52.7594 12.5679C52.0003 12.8033 51.1463 12.8974 50.2448 12.8974C49.2485 12.8974 48.347 12.7091 47.493 12.3796C46.639 12.0501 45.9273 11.5794 45.263 11.0146C44.6463 10.4497 44.1244 9.74366 43.7923 8.94346C43.4127 8.14326 43.2229 7.29598 43.2229 6.4487C43.2229 5.55436 43.3652 4.75415 43.6974 3.95395C44.0295 3.15374 44.5039 2.49475 45.0733 1.88283C45.6426 1.31798 46.3543 0.847275 47.1134 0.470708C47.9674 0.188283 48.8215 0 49.7229 0ZM52.5222 5.46021C52.3324 4.75415 51.9528 4.1893 51.4309 3.71859C50.909 3.24789 50.3397 3.0596 49.6755 3.0596C49.0112 3.0596 48.3944 3.29496 47.8725 3.71859C47.3506 4.14223 46.9711 4.75415 46.7813 5.46021H52.5222Z" fill="white"/>
<path d="M72.164 0.377264C72.591 0.377264 73.1129 0.471415 73.5874 0.612643C74.1093 0.75387 74.5837 1.03632 75.0107 1.41293C75.4377 1.78954 75.8173 2.30737 76.102 2.96643C76.3866 3.6255 76.529 4.47286 76.529 5.46145V12.617H73.1129V6.07344C73.1129 5.60268 73.0655 5.179 72.9706 4.80239C72.8757 4.47286 72.7334 4.1904 72.5436 3.95502C72.3538 3.71964 72.164 3.57842 71.9268 3.48427C71.6896 3.39011 71.4524 3.34304 71.2151 3.34304C70.9779 3.34304 70.7407 3.39011 70.5035 3.48427C70.2662 3.57842 70.0765 3.71965 69.8867 3.90795C69.6969 4.09626 69.5545 4.37871 69.4597 4.70824C69.3648 5.03777 69.3173 5.50853 69.3173 6.02636V12.5699H65.9013V6.02636C65.9013 5.03777 65.7115 4.33163 65.3794 3.95502C65.0473 3.57842 64.5254 3.34304 63.8611 3.34304C63.3867 3.34304 62.9597 3.57842 62.5801 4.0021C62.2005 4.42578 62.0108 5.13192 62.0108 6.07344V12.5699H58.5947V0.330185H61.5363L62.0108 1.46C62.3903 1.0834 62.8173 0.800946 63.3392 0.612643C63.8611 0.424339 64.383 0.330185 64.9524 0.330185C65.237 0.330185 65.5691 0.377259 65.9013 0.424335C66.2334 0.471411 66.5655 0.565561 66.8502 0.753865C67.1823 0.895092 67.467 1.0834 67.7516 1.31878C68.0363 1.55416 68.321 1.88369 68.5582 2.21322C68.748 1.88369 68.9852 1.60123 69.2699 1.36585C69.5546 1.13047 69.8392 0.942168 70.1713 0.753865C70.5034 0.612637 70.8356 0.471411 71.2151 0.424335C71.4998 0.377259 71.8319 0.377264 72.164 0.377264Z" fill="#5BBA47"/>
<path d="M84.832 0C85.781 0 86.5875 0.188282 87.3466 0.564849C88.1058 0.941415 88.77 1.41213 89.2919 2.02405C89.8612 2.63597 90.2408 3.29496 90.5729 4.09516C90.8576 4.89537 90.9999 5.69557 90.9999 6.49578C90.9999 6.96649 90.9525 7.53133 90.8102 8.09618H81.9853C82.3174 8.66103 82.7919 9.13174 83.4087 9.50831C84.0255 9.88488 84.6897 10.0732 85.4014 10.0732C86.1131 10.0732 86.7299 10.0261 87.2992 9.88488C87.8211 9.79074 88.343 9.60245 88.8174 9.46124L89.9561 11.5794C89.3394 12.0031 88.6277 12.3326 87.8685 12.5679C87.1094 12.8033 86.2554 12.8974 85.3539 12.8974C84.3576 12.8974 83.4561 12.7091 82.6021 12.3796C81.7481 12.0501 81.0364 11.5794 80.3722 11.0146C79.7554 10.4497 79.2335 9.74366 78.9014 8.94346C78.5218 8.14326 78.332 7.29598 78.332 6.4487C78.332 5.55436 78.4744 4.75415 78.8065 3.95395C79.1386 3.15374 79.6131 2.49475 80.1824 1.88283C80.7518 1.31798 81.4634 0.847275 82.2226 0.470708C83.0766 0.188283 83.9306 0 84.832 0ZM87.6313 5.46021C87.4415 4.75415 87.062 4.1893 86.5401 3.71859C86.0182 3.24789 85.4488 3.0596 84.7846 3.0596C84.1204 3.0596 83.5036 3.29496 82.9817 3.71859C82.4598 4.14223 82.0802 4.75415 81.8904 5.46021H87.6313Z" fill="#5BBA47"/>
</svg>
